<?xml version="1.0" encoding="utf-8"?>
<!-- Generator: Adobe Illustrator 26.0.2, SVG Export Plug-In . SVG Version: 6.00 Build 0)  -->
<svg version="1.1" id="图层_1" xmlns="http://www.w3.org/2000/svg" xmlns:xlink="http://www.w3.org/1999/xlink" x="0px" y="0px"
	 viewBox="0 0 24 24" style="enable-background:new 0 0 24 24;" xml:space="preserve">
<style type="text/css">
	.st0{fill:none;}
	.st1{fill:#6B7280;}
	.st2{fill-rule:evenodd;clip-rule:evenodd;fill:#6B7280;}
</style>
<rect y="0" class="st0" width="24" height="24"/>
<g>
	<path class="st1" d="M12.6,23.3L12.6,23.3L12.6,23.3l-0.1,0l0,0l-0.1,0c0,0,0,0,0,0l0,0l0,0.4l0,0l0,0l0.1,0.1l0,0l0,0l0.1-0.1l0,0
		l0,0L12.6,23.3C12.6,23.3,12.6,23.3,12.6,23.3 M12.9,23.1L12.9,23.1l-0.2,0.1l0,0l0,0l0,0.4l0,0l0,0l0.2,0.1c0,0,0,0,0,0l0,0
		L12.9,23.1C12.9,23.2,12.9,23.1,12.9,23.1 M12.1,23.1C12.1,23.1,12.1,23.1,12.1,23.1L12.1,23.1l-0.1,0.6c0,0,0,0,0,0l0,0l0.2-0.1
		l0,0l0,0l0-0.4l0,0l0,0L12.1,23.1z"/>
	<path class="st2" d="M6.4,3.2C6.9,2.9,7.5,3,7.8,3.4c0,0,0,0,0,0L9.5,6h4.9l1.7-2.6c0.3-0.5,0.9-0.6,1.4-0.3
		c0.5,0.3,0.6,0.9,0.3,1.4l0,0l-1,1.4H18c2.2,0,4,1.8,4,4v7c0,2.2-1.8,4-4,4H6c-2.2,0-4-1.8-4-4v-7c0-2.2,1.8-4,4-4h1.1l-1-1.4
		C5.9,4.1,6,3.5,6.4,3.2C6.4,3.2,6.4,3.2,6.4,3.2 M9,8H6c-1.1,0-2,0.9-2,2v7c0,1.1,0.9,2,2,2h12c1.1,0,2-0.9,2-2v-7c0-1.1-0.9-2-2-2
		H9L9,8z M9,11c0.6,0,1,0.4,1,1v2c0,0.6-0.4,1-1,1s-1-0.4-1-1v-2C8,11.4,8.4,11,9,11 M15,11c0.6,0,1,0.4,1,1v2c0,0.6-0.4,1-1,1
		s-1-0.4-1-1v-2C14,11.4,14.4,11,15,11"/>
</g>
</svg>
