<?xml version="1.0" encoding="utf-8"?>
<!-- Generator: Adobe Illustrator 26.0.2, SVG Export Plug-In . SVG Version: 6.00 Build 0)  -->
<svg version="1.1" id="图层_1" xmlns="http://www.w3.org/2000/svg" xmlns:xlink="http://www.w3.org/1999/xlink" x="0px" y="0px"
	 viewBox="0 0 38 38" style="enable-background:new 0 0 38 38;" xml:space="preserve">
<style type="text/css">
	.st0{fill:#6B727B;stroke:#6B7280;stroke-linecap:round;stroke-linejoin:round;}
	.st1{fill:none;stroke:#FFFFFF;stroke-linecap:round;stroke-linejoin:round;}
</style>
<path class="st0" d="M5.1,1.3h27.7c2.1,0,3.8,1.7,3.8,3.8v27.7c0,2.1-1.7,3.8-3.8,3.8H5.1c-2.1,0-3.8-1.7-3.8-3.8V5.1
	C1.3,3,3,1.3,5.1,1.3z"/>
<g>
	<path class="st1" d="M26.9,14.6v8.8 M21.4,16v7.4 M20,16h2.9 M19,23.4h4.6 M25.1,16H29c0.5,0,0.9,0.4,0.9,0.9v2.6"/>
	<path class="st1" d="M24.6,19.4h6.9c0.5,0,1,0.4,1,1l0,0v2.1c0,0.5-0.4,1-1,1h-1.7 M31.4,16.4l1-0.9 M16.8,23.4h-2 M12.5,17.1
		l0.7,4.8 M6.3,17.1l-0.6,5.1 M9.4,14.6v7.5c0,0.7-0.6,1.3-1.3,1.3l0,0H7.7 M16.8,14.6l-1.3,3.1h1.8L16,20.8h1.8"/>
</g>
</svg>
