<?xml version="1.0" encoding="utf-8"?>
<!-- Generator: Adobe Illustrator 26.0.2, SVG Export Plug-In . SVG Version: 6.00 Build 0)  -->
<svg version="1.1" id="图层_1" xmlns="http://www.w3.org/2000/svg" xmlns:xlink="http://www.w3.org/1999/xlink" x="0px" y="0px"
	 viewBox="0 0 24 24" style="enable-background:new 0 0 24 24;" xml:space="preserve">
<style type="text/css">
	.st0{fill:none;}
	.st1{fill:#6B7280;}
</style>
<rect y="0" class="st0" width="24" height="24"/>
<path class="st1" d="M16.6,5.8C16.6,5.8,17.1,6.3,16.6,5.8C15.9,5,15.5,4,15.5,3h-3.1v12.4c0,1.4-1.2,2.5-2.6,2.5
	c-1.4,0-2.6-1.2-2.6-2.6c0-1.7,1.7-3,3.4-2.5V9.7c-3.4-0.5-6.5,2.2-6.5,5.6c0,3.3,2.8,5.7,5.7,5.7c3.1,0,5.7-2.5,5.7-5.7V9
	c1.3,0.9,2.8,1.4,4.3,1.4V7.3C19.8,7.3,18,7.4,16.6,5.8"/>
</svg>
