<?xml version="1.0" encoding="utf-8"?>
<!-- Generator: Adobe Illustrator 26.0.2, SVG Export Plug-In . SVG Version: 6.00 Build 0)  -->
<svg version="1.1" id="图层_1" xmlns="http://www.w3.org/2000/svg" xmlns:xlink="http://www.w3.org/1999/xlink" x="0px" y="0px"
	 viewBox="0 0 24 24" style="enable-background:new 0 0 24 24;" xml:space="preserve">
<style type="text/css">
	.st0{fill:none;}
	.st1{fill:#6B7280;}
</style>
<rect y="0" class="st0" width="24" height="24"/>
<path class="st1" d="M15.9,8.1c0.4,0,0.8,0,1.1,0.1C16.3,5.3,13.2,3,9.4,3C5.2,3,1.7,5.9,1.7,9.4c0,2.1,1.2,3.9,2.9,5l-1,2l2.8-1.2
	c0.6,0.2,1.2,0.4,1.9,0.5c-0.1-0.4-0.1-0.8-0.1-1.2C8.1,11,11.6,8.1,15.9,8.1 M12,5.9c0.5,0,1,0.4,1,1s-0.4,1-1,1s-1-0.4-1-1
	S11.5,5.9,12,5.9L12,5.9 M6.9,7.8c-0.5,0-1-0.4-1-1s0.4-1,1-1s1,0.4,1,1S7.4,7.8,6.9,7.8L6.9,7.8"/>
<path class="st1" d="M22.3,14.6c0-2.8-2.9-5.1-6.4-5.1s-6.4,2.3-6.4,5.1s2.9,5.1,6.4,5.1c0.6,0,1.1-0.1,1.7-0.2L21,21l-1.2-2.4
	C21.3,17.7,22.3,16.2,22.3,14.6 M13.9,14.3c-0.5,0-1-0.4-1-1s0.4-1,1-1s1,0.4,1,1C14.9,13.8,14.4,14.3,13.9,14.3 M17.8,14.3
	c-0.5,0-1-0.4-1-1s0.4-1,1-1s1,0.4,1,1S18.3,14.3,17.8,14.3"/>
</svg>
